<?xml version="1.0" encoding="utf-8"?>
<!-- Generator: Adobe Illustrator 24.3.0, SVG Export Plug-In . SVG Version: 6.00 Build 0)  -->
<svg version="1.1" id="Layer_1" xmlns="http://www.w3.org/2000/svg" xmlns:xlink="http://www.w3.org/1999/xlink" x="0px" y="0px"
	 viewBox="0 0 512 471.3" style="enable-background:new 0 0 512 471.3;" xml:space="preserve">
<style type="text/css">
	.Graphic_x0020_Style_x0020_4{fill:url(#SVGID_1_);}
	.st0{fill:#383D47;}
	.st1{fill:#8492A5;}
	.st2{fill:#636E7D;}
	.st3{fill:url(#SVGID_2_);}
	.st4{fill:url(#SVGID_3_);}
	.st5{fill:url(#SVGID_4_);}
	.st6{fill:url(#SVGID_5_);}
	.st7{fill:url(#SVGID_6_);}
	.st8{fill:url(#SVGID_7_);}
	.st9{fill:url(#SVGID_8_);}
	.st10{fill:url(#SVGID_9_);}
	.st11{fill:url(#SVGID_10_);}
	.st12{fill:url(#SVGID_11_);}
	.st13{fill:#71C390;}
	.st14{fill:url(#SVGID_12_);}
	.st15{fill:url(#SVGID_13_);}
	.st16{fill:url(#SVGID_14_);}
	.st17{fill:url(#SVGID_15_);}
	.st18{fill:url(#SVGID_16_);}
	.st19{fill:url(#SVGID_17_);}
	.st20{fill:url(#SVGID_18_);}
	.st21{fill:url(#SVGID_19_);}
	.st22{fill:url(#SVGID_20_);}
	.st23{fill:url(#SVGID_21_);}
	.st24{fill:url(#SVGID_22_);}
	.st25{fill:url(#SVGID_23_);}
	.st26{fill:url(#SVGID_24_);}
	.st27{fill:url(#SVGID_25_);}
	.st28{fill:url(#SVGID_26_);}
	.st29{fill:url(#SVGID_27_);}
	.st30{fill:url(#SVGID_28_);}
	.st31{fill:url(#SVGID_29_);}
	.st32{fill:url(#SVGID_30_);}
	.st33{fill:url(#SVGID_31_);}
	.st34{fill:url(#SVGID_32_);}
	.st35{fill:url(#SVGID_33_);}
	.st36{fill:url(#SVGID_34_);}
	.st37{fill:url(#SVGID_35_);}
	.st38{fill:url(#SVGID_36_);}
	.st39{fill:url(#SVGID_37_);}
	.st40{fill:url(#SVGID_38_);}
	.st41{fill:url(#SVGID_39_);}
	.st42{fill:url(#SVGID_40_);}
	.st43{fill:url(#SVGID_41_);}
	.st44{fill:url(#SVGID_42_);}
	.st45{fill:url(#SVGID_43_);}
	.st46{fill:url(#SVGID_44_);}
	.st47{fill:url(#SVGID_45_);}
	.st48{fill:url(#SVGID_46_);}
	.st49{fill:url(#SVGID_47_);}
	.st50{fill:url(#SVGID_48_);}
	.st51{fill:url(#SVGID_49_);}
	.st52{fill:url(#SVGID_50_);}
	.st53{fill:url(#SVGID_51_);}
	.st54{fill:url(#SVGID_52_);}
	.st55{fill:url(#SVGID_53_);}
	.st56{fill:url(#SVGID_54_);}
	.st57{fill:url(#SVGID_55_);}
	.st58{fill:url(#SVGID_56_);}
	.st59{fill:url(#SVGID_57_);}
	.st60{fill:url(#SVGID_58_);}
	.st61{fill:url(#SVGID_59_);}
	.st62{fill:url(#SVGID_60_);}
	.st63{fill:url(#SVGID_61_);}
	.st64{fill:url(#SVGID_62_);}
	.st65{fill:url(#SVGID_63_);}
</style>
<linearGradient id="SVGID_1_" gradientUnits="userSpaceOnUse" x1="0" y1="-19.2128" x2="6.123234e-17" y2="-20.2128">
	<stop  offset="0.1887" style="stop-color:#636E7D"/>
	<stop  offset="0.948" style="stop-color:#383D47"/>
</linearGradient>
<g>
	<g>
		<g>
			<g>
				<g>
					<polygon class="st0" points="419.4,197.9 419.3,187.7 431.9,182.5 431.9,170.7 408.3,180.5 408.3,180.5 408.4,184.3 
						408.4,192.2 408.4,192.2 408.5,203.9 408.5,214.2 432.1,204.4 432.1,192.7 					"/>
				</g>
				<g>
					<path class="st1" d="M289.7,52.1c14.7-16,27.2-22.8,27.2-22.8V2.1c0,0-19.1,8.5-33.9,30.1c-21.6,31.5-22.2,68.1-22.2,68.1
						S269.8,73.6,289.7,52.1z"/>
				</g>
				<g>
					<g>
						<path class="st0" d="M360.3,75.2v116.3c-12.1,1.7-27.6,4.6-42.8,9.7c-9.7,3.2-20.4,8.5-30.5,14.1v-82.7
							c0-17.3,9.3-33.3,23.7-40.6c5.5-2.8,11.2-5.4,16.7-7.6C339,79.9,350.6,77,360.3,75.2 M384.7,47.8c0,0-32.6,0.6-66.3,14
							c-6.8,2.7-13.1,5.6-18.8,8.5c-22.6,11.5-37,35.8-37,62.3v126.9c0,0,37.4-26.7,62.7-35.1c29.2-9.8,59.5-10.7,59.5-10.7V47.8
							L384.7,47.8z"/>
					</g>
				</g>
				<g>
					<path class="st2" d="M319.2,55.5c-6.8,2.6-13.7,5.5-20.5,8.8c-8.9,4.3-16.8,10.3-23.2,17.4c-1.3,1.3-1.9,2.1-1.9,2.1
						c34.4-59.5,88-63.9,88-63.9v24.4C349.4,46.4,334.5,49.8,319.2,55.5z"/>
				</g>
				<g>
					<polygon class="st0" points="432.3,37.9 408.8,47.7 408.8,168.2 432.3,158.5 					"/>
				</g>
			</g>
			<g>
				<g>
					<linearGradient id="SVGID_2_" gradientUnits="userSpaceOnUse" x1="346.5685" y1="259.5303" x2="346.5685" y2="2.0858">
						<stop  offset="0.1887" style="stop-color:#636E7D"/>
						<stop  offset="0.948" style="stop-color:#383D47"/>
					</linearGradient>
					<polygon class="st3" points="419.4,197.9 419.3,187.7 431.9,182.5 431.9,170.7 408.3,180.5 408.3,180.5 408.4,184.3 
						408.4,192.2 408.4,192.2 408.5,203.9 408.5,214.2 432.1,204.4 432.1,192.7 					"/>
					<linearGradient id="SVGID_3_" gradientUnits="userSpaceOnUse" x1="346.5685" y1="259.5303" x2="346.5685" y2="2.0858">
						<stop  offset="0.1887" style="stop-color:#636E7D"/>
						<stop  offset="0.948" style="stop-color:#383D47"/>
					</linearGradient>
					<polygon class="st4" points="419.4,197.9 419.3,187.7 431.9,182.5 431.9,170.7 408.3,180.5 408.3,180.5 408.4,184.3 
						408.4,192.2 408.4,192.2 408.5,203.9 408.5,214.2 432.1,204.4 432.1,192.7 					"/>
				</g>
				<g>
					<linearGradient id="SVGID_4_" gradientUnits="userSpaceOnUse" x1="346.5685" y1="259.5303" x2="346.5685" y2="2.0858">
						<stop  offset="0.1887" style="stop-color:#636E7D"/>
						<stop  offset="0.948" style="stop-color:#383D47"/>
					</linearGradient>
					<path class="st5" d="M289.7,52.1c14.7-16,27.2-22.8,27.2-22.8V2.1c0,0-19.1,8.5-33.9,30.1c-21.6,31.5-22.2,68.1-22.2,68.1
						S269.8,73.6,289.7,52.1z"/>
					<linearGradient id="SVGID_5_" gradientUnits="userSpaceOnUse" x1="346.5685" y1="259.5303" x2="346.5685" y2="2.0858">
						<stop  offset="0.1887" style="stop-color:#636E7D"/>
						<stop  offset="0.948" style="stop-color:#383D47"/>
					</linearGradient>
					<path class="st6" d="M289.7,52.1c14.7-16,27.2-22.8,27.2-22.8V2.1c0,0-19.1,8.5-33.9,30.1c-21.6,31.5-22.2,68.1-22.2,68.1
						S269.8,73.6,289.7,52.1z"/>
				</g>
				<g>
					<g>
						<linearGradient id="SVGID_6_" gradientUnits="userSpaceOnUse" x1="346.5685" y1="259.5303" x2="346.5685" y2="2.0858">
							<stop  offset="0.1887" style="stop-color:#636E7D"/>
							<stop  offset="0.948" style="stop-color:#383D47"/>
						</linearGradient>
						<path class="st7" d="M360.3,75.2v116.3c-12.1,1.7-27.6,4.6-42.8,9.7c-9.7,3.2-20.4,8.5-30.5,14.1v-82.7
							c0-17.3,9.3-33.3,23.7-40.6c5.5-2.8,11.2-5.4,16.7-7.6C339,79.9,350.6,77,360.3,75.2 M384.7,47.8c0,0-32.6,0.6-66.3,14
							c-6.8,2.7-13.1,5.6-18.8,8.5c-22.6,11.5-37,35.8-37,62.3v126.9c0,0,37.4-26.7,62.7-35.1c29.2-9.8,59.5-10.7,59.5-10.7V47.8
							L384.7,47.8z"/>
					</g>
					<g>
						<linearGradient id="SVGID_7_" gradientUnits="userSpaceOnUse" x1="346.5685" y1="259.5303" x2="346.5685" y2="2.0858">
							<stop  offset="0.1887" style="stop-color:#636E7D"/>
							<stop  offset="0.948" style="stop-color:#383D47"/>
						</linearGradient>
						<path class="st8" d="M360.3,75.2v116.3c-12.1,1.7-27.6,4.6-42.8,9.7c-9.7,3.2-20.4,8.5-30.5,14.1v-82.7
							c0-17.3,9.3-33.3,23.7-40.6c5.5-2.8,11.2-5.4,16.7-7.6C339,79.9,350.6,77,360.3,75.2 M384.7,47.8c0,0-32.6,0.6-66.3,14
							c-6.8,2.7-13.1,5.6-18.8,8.5c-22.6,11.5-37,35.8-37,62.3v126.9c0,0,37.4-26.7,62.7-35.1c29.2-9.8,59.5-10.7,59.5-10.7V47.8
							L384.7,47.8z"/>
					</g>
				</g>
				<g>
					<linearGradient id="SVGID_8_" gradientUnits="userSpaceOnUse" x1="346.5685" y1="259.5303" x2="346.5685" y2="2.0858">
						<stop  offset="0.1887" style="stop-color:#636E7D"/>
						<stop  offset="0.948" style="stop-color:#383D47"/>
					</linearGradient>
					<path class="st9" d="M319.2,55.5c-6.8,2.6-13.7,5.5-20.5,8.8c-8.9,4.3-16.8,10.3-23.2,17.4c-1.3,1.3-1.9,2.1-1.9,2.1
						c34.4-59.5,88-63.9,88-63.9v24.4C349.4,46.4,334.5,49.8,319.2,55.5z"/>
					<linearGradient id="SVGID_9_" gradientUnits="userSpaceOnUse" x1="346.5685" y1="259.5303" x2="346.5685" y2="2.0858">
						<stop  offset="0.1887" style="stop-color:#636E7D"/>
						<stop  offset="0.948" style="stop-color:#383D47"/>
					</linearGradient>
					<path class="st10" d="M319.2,55.5c-6.8,2.6-13.7,5.5-20.5,8.8c-8.9,4.3-16.8,10.3-23.2,17.4c-1.3,1.3-1.9,2.1-1.9,2.1
						c34.4-59.5,88-63.9,88-63.9v24.4C349.4,46.4,334.5,49.8,319.2,55.5z"/>
				</g>
				<g>
					<linearGradient id="SVGID_10_" gradientUnits="userSpaceOnUse" x1="346.5685" y1="259.5303" x2="346.5685" y2="2.0858">
						<stop  offset="0.1887" style="stop-color:#636E7D"/>
						<stop  offset="0.948" style="stop-color:#383D47"/>
					</linearGradient>
					<polygon class="st11" points="432.3,37.9 408.8,47.7 408.8,168.2 432.3,158.5 					"/>
					<linearGradient id="SVGID_11_" gradientUnits="userSpaceOnUse" x1="346.5685" y1="259.5303" x2="346.5685" y2="2.0858">
						<stop  offset="0.1887" style="stop-color:#636E7D"/>
						<stop  offset="0.948" style="stop-color:#383D47"/>
					</linearGradient>
					<polygon class="st12" points="432.3,37.9 408.8,47.7 408.8,168.2 432.3,158.5 					"/>
				</g>
			</g>
		</g>
		<g>
			<g>
				<g>
					<path class="st13" d="M222.8,52.1c-14.7-16-27.2-22.8-27.2-22.8V2.1c0,0,19.1,8.5,33.9,30.1c21.6,31.5,22.2,68.1,22.2,68.1
						S242.7,73.6,222.8,52.1z"/>
				</g>
				<g>
					<g>
						<path class="st13" d="M152.3,75.2c9.7,1.8,21.3,4.7,32.9,9.3c5.6,2.2,11.2,4.8,16.7,7.6c14.4,7.3,22.4,14.7,23.7,30.8
							l24.4,9.8c0-26.6-14.4-50.8-37-62.3c-5.8-2.9-12.1-5.8-18.8-8.5c-33.7-13.4-66.3-14-66.3-14l0,0v115l24.4,9.7V75.2"/>
					</g>
				</g>
				<g>
					<path class="st13" d="M225.6,215.3c-10.1-5.6-20.9-10.8-30.5-14.1c-15.3-5.1-30.7-8.1-42.8-9.7v-6.8l-24.4-9.6v38.6
						c0,0,30.3,0.9,59.5,10.7c25.3,8.5,62.7,35.1,62.7,35.1V145l-24.4-9.8V215.3"/>
				</g>
				<g>
					<path class="st13" d="M193.3,55.5c6.8,2.6,13.7,5.5,20.5,8.8c8.9,4.3,16.8,10.3,23.2,17.4c1.3,1.3,1.9,2.1,1.9,2.1
						c-34.4-59.5-88-63.9-88-63.9v24.4C163.2,46.4,178.1,49.8,193.3,55.5z"/>
				</g>
				<g>
					<polygon class="st13" points="90.9,64.2 90.8,53.9 103.5,59.7 103.5,47.9 79.9,38.2 79.9,38.2 79.9,42 80,49.9 80,49.9 
						80.1,61.6 80.1,71.9 103.7,81.6 103.7,69.9 					"/>
				</g>
				<g>
					<polygon class="st13" points="79.7,84.1 103.2,93.8 103.2,214.2 79.7,204.4 					"/>
				</g>
			</g>
			<g>
				<g>
					<linearGradient id="SVGID_12_" gradientUnits="userSpaceOnUse" x1="165.7062" y1="379.7314" x2="165.7062" y2="-80.443">
						<stop  offset="0.1887" style="stop-color:#51E69B"/>
						<stop  offset="0.948" style="stop-color:#2697F9"/>
					</linearGradient>
					<path class="st14" d="M222.8,52.1c-14.7-16-27.2-22.8-27.2-22.8V2.1c0,0,19.1,8.5,33.9,30.1c21.6,31.5,22.2,68.1,22.2,68.1
						S242.7,73.6,222.8,52.1z"/>
					<linearGradient id="SVGID_13_" gradientUnits="userSpaceOnUse" x1="165.7062" y1="379.7314" x2="165.7062" y2="-80.443">
						<stop  offset="0.1887" style="stop-color:#51E69B"/>
						<stop  offset="0.948" style="stop-color:#2697F9"/>
					</linearGradient>
					<path class="st15" d="M222.8,52.1c-14.7-16-27.2-22.8-27.2-22.8V2.1c0,0,19.1,8.5,33.9,30.1c21.6,31.5,22.2,68.1,22.2,68.1
						S242.7,73.6,222.8,52.1z"/>
				</g>
				<g>
					<g>
						<linearGradient id="SVGID_14_" gradientUnits="userSpaceOnUse" x1="165.7062" y1="379.7314" x2="165.7062" y2="-80.443">
							<stop  offset="0.1887" style="stop-color:#51E69B"/>
							<stop  offset="0.948" style="stop-color:#2697F9"/>
						</linearGradient>
						<path class="st16" d="M152.3,75.2c9.7,1.8,21.3,4.7,32.9,9.3c5.6,2.2,11.2,4.8,16.7,7.6c14.4,7.3,22.4,14.7,23.7,30.8
							l24.4,9.8c0-26.6-14.4-50.8-37-62.3c-5.8-2.9-12.1-5.8-18.8-8.5c-33.7-13.4-66.3-14-66.3-14l0,0v115l24.4,9.7V75.2"/>
					</g>
					<g>
						<linearGradient id="SVGID_15_" gradientUnits="userSpaceOnUse" x1="165.7062" y1="379.7314" x2="165.7062" y2="-80.443">
							<stop  offset="0.1887" style="stop-color:#51E69B"/>
							<stop  offset="0.948" style="stop-color:#2697F9"/>
						</linearGradient>
						<path class="st17" d="M152.3,75.2c9.7,1.8,21.3,4.7,32.9,9.3c5.6,2.2,11.2,4.8,16.7,7.6c14.4,7.3,22.4,14.7,23.7,30.8
							l24.4,9.8c0-26.6-14.4-50.8-37-62.3c-5.8-2.9-12.1-5.8-18.8-8.5c-33.7-13.4-66.3-14-66.3-14l0,0v115l24.4,9.7V75.2"/>
					</g>
				</g>
				<g>
					<linearGradient id="SVGID_16_" gradientUnits="userSpaceOnUse" x1="165.7062" y1="379.7314" x2="165.7062" y2="-80.443">
						<stop  offset="0.1887" style="stop-color:#51E69B"/>
						<stop  offset="0.948" style="stop-color:#2697F9"/>
					</linearGradient>
					<path class="st18" d="M225.6,215.3c-10.1-5.6-20.9-10.8-30.5-14.1c-15.3-5.1-30.7-8.1-42.8-9.7v-6.8l-24.4-9.6v38.6
						c0,0,30.3,0.9,59.5,10.7c25.3,8.5,62.7,35.1,62.7,35.1V145l-24.4-9.8V215.3"/>
					<linearGradient id="SVGID_17_" gradientUnits="userSpaceOnUse" x1="165.7062" y1="379.7314" x2="165.7062" y2="-80.443">
						<stop  offset="0.1887" style="stop-color:#51E69B"/>
						<stop  offset="0.948" style="stop-color:#2697F9"/>
					</linearGradient>
					<path class="st19" d="M225.6,215.3c-10.1-5.6-20.9-10.8-30.5-14.1c-15.3-5.1-30.7-8.1-42.8-9.7v-6.8l-24.4-9.6v38.6
						c0,0,30.3,0.9,59.5,10.7c25.3,8.5,62.7,35.1,62.7,35.1V145l-24.4-9.8V215.3"/>
				</g>
				<g>
					<linearGradient id="SVGID_18_" gradientUnits="userSpaceOnUse" x1="165.7062" y1="379.7314" x2="165.7062" y2="-80.443">
						<stop  offset="0.1887" style="stop-color:#51E69B"/>
						<stop  offset="0.948" style="stop-color:#2697F9"/>
					</linearGradient>
					<path class="st20" d="M193.3,55.5c6.8,2.6,13.7,5.5,20.5,8.8c8.9,4.3,16.8,10.3,23.2,17.4c1.3,1.3,1.9,2.1,1.9,2.1
						c-34.4-59.5-88-63.9-88-63.9v24.4C163.2,46.4,178.1,49.8,193.3,55.5z"/>
					<linearGradient id="SVGID_19_" gradientUnits="userSpaceOnUse" x1="165.7062" y1="379.7314" x2="165.7062" y2="-80.443">
						<stop  offset="0.1887" style="stop-color:#51E69B"/>
						<stop  offset="0.948" style="stop-color:#2697F9"/>
					</linearGradient>
					<path class="st21" d="M193.3,55.5c6.8,2.6,13.7,5.5,20.5,8.8c8.9,4.3,16.8,10.3,23.2,17.4c1.3,1.3,1.9,2.1,1.9,2.1
						c-34.4-59.5-88-63.9-88-63.9v24.4C163.2,46.4,178.1,49.8,193.3,55.5z"/>
				</g>
				<g>
					<linearGradient id="SVGID_20_" gradientUnits="userSpaceOnUse" x1="165.7062" y1="379.7314" x2="165.7062" y2="-80.443">
						<stop  offset="0.1887" style="stop-color:#51E69B"/>
						<stop  offset="0.948" style="stop-color:#2697F9"/>
					</linearGradient>
					<polygon class="st22" points="90.9,64.2 90.8,53.9 103.5,59.7 103.5,47.9 79.9,38.2 79.9,38.2 79.9,42 80,49.9 80,49.9 
						80.1,61.6 80.1,71.9 103.7,81.6 103.7,69.9 					"/>
					<linearGradient id="SVGID_21_" gradientUnits="userSpaceOnUse" x1="165.7062" y1="379.7314" x2="165.7062" y2="-80.443">
						<stop  offset="0.1887" style="stop-color:#51E69B"/>
						<stop  offset="0.948" style="stop-color:#2697F9"/>
					</linearGradient>
					<polygon class="st23" points="90.9,64.2 90.8,53.9 103.5,59.7 103.5,47.9 79.9,38.2 79.9,38.2 79.9,42 80,49.9 80,49.9 
						80.1,61.6 80.1,71.9 103.7,81.6 103.7,69.9 					"/>
				</g>
				<g>
					<linearGradient id="SVGID_22_" gradientUnits="userSpaceOnUse" x1="165.7062" y1="379.7314" x2="165.7062" y2="-80.443">
						<stop  offset="0.1887" style="stop-color:#51E69B"/>
						<stop  offset="0.948" style="stop-color:#2697F9"/>
					</linearGradient>
					<polygon class="st24" points="79.7,84.1 103.2,93.8 103.2,214.2 79.7,204.4 					"/>
					<linearGradient id="SVGID_23_" gradientUnits="userSpaceOnUse" x1="165.7062" y1="379.7314" x2="165.7062" y2="-80.443">
						<stop  offset="0.1887" style="stop-color:#51E69B"/>
						<stop  offset="0.948" style="stop-color:#2697F9"/>
					</linearGradient>
					<polygon class="st25" points="79.7,84.1 103.2,93.8 103.2,214.2 79.7,204.4 					"/>
				</g>
			</g>
		</g>
	</g>
	<g>
		<g>
			<rect x="7.2" y="321.6" width="8.8" height="60.5"/>
			<path d="M21.6,311h-5.1c-2.8,0-6.2-0.6-6.2-3.5c0-1.9,1.6-3.1,4.2-3.1c1.8,0,3.4,0.3,4.1,0.4l0.5,0.1l0.9-5.5l-0.4-0.1
				c-1-0.2-2.8-0.3-4.7-0.3c-10.4,0-11.2,6.7-11.2,8.8c0,1.1,0.4,2.4,1.2,3.4C3.6,311.1,2,311,0.5,311H0v5.4h21.6V311z"/>
			<path d="M98.9,334c2.8,0,5-2.3,5-5.1c0-2.8-2.2-5-5-5c-2.8,0-5,2.2-5,5C93.9,331.8,96.1,334,98.9,334z"/>
			<path d="M111.6,334c2.8,0,4.9-2.2,4.9-5.1c0-2.8-2.2-5-4.9-5c-2.8,0-5.1,2.2-5.1,5C106.5,331.7,108.7,334,111.6,334z"/>
			<path d="M106.1,340c-15.1,0-21.8,10.7-21.8,21.3c0,6.4,1.6,10.8,5,13.7c-0.8-0.1-1.9-0.2-3.2-0.2h-44v-34h-8.8v41.8
				c0,9.9-3.3,14.2-10.9,14.2c-3,0-5.8-0.5-8.4-1.4l-0.5-0.2l-1.1,7.5l0.4,0.1c2.9,0.8,6.1,1.2,9,1.2c13.7,0,20.3-7.2,20.3-22h82.8
				v-22.4C124.9,346.9,118.2,340,106.1,340z M105.4,347.1c7.4,0,10.8,4.4,10.8,13.8v13.9h-8c-10.5,0-15.1-4.3-15.1-14
				C93.1,352.4,97.8,347.1,105.4,347.1z"/>
			<path d="M142.2,395.5c0-1.5,1.3-2.4,3.6-2.4c1.8,0,3.4,0.4,3.9,0.5l0.5,0.1l0.9-5.7l-0.4-0.1c-1.2-0.3-3-0.4-4.8-0.4
				c-7.7,0-10.5,4.4-10.5,8.2c0,0.9,0.3,1.8,0.7,2.5c-1.1-0.1-2.4-0.1-3.7-0.1H132v5.6h20.9v-5.6h-5.5
				C145,398.2,142.2,397.7,142.2,395.5z"/>
			<rect x="139.3" y="320.8" width="8.8" height="61.2"/>
			<path d="M207.7,334c2.8,0,4.9-2.2,4.9-5.1c0-2.8-2.2-5-4.9-5c-2.8,0-5.1,2.2-5.1,5C202.6,331.7,204.9,334,207.7,334z"/>
			<path d="M195.1,334c2.8,0,5-2.3,5-5.1c0-2.8-2.2-5-5-5c-2.8,0-5,2.2-5,5C190.1,331.8,192.2,334,195.1,334z"/>
			<path d="M244.6,389.3c-2.8,0-5,2.2-5,5c0,2.9,2.1,5.1,5,5.1c2.8,0,5-2.3,5-5.1C249.6,391.5,247.4,389.3,244.6,389.3z"/>
			<path d="M257.2,389.3c-2.8,0-5.1,2.2-5.1,5c0,2.8,2.2,5.1,5.1,5.1c2.8,0,4.9-2.2,4.9-5.1C262.1,391.5,260,389.3,257.2,389.3z"/>
			<path d="M353.3,374.9h-23.5v-14.2c0-13.8-6.5-20.7-19.3-20.7c-13,0-21.3,8.9-21.3,22.8c0,10.7-3.6,12.1-7.1,12.1h-19.2v-34H254
				v34h-34.3v-31.8l-0.3-0.1c-0.1,0-8-3-17.4-3c-16.2,0-22,11.7-22,21.7c0,13.7,7.5,20.4,22.9,20.4h78.8c5.3,0,9.4-2.4,11.4-6.7
				c3.1,4.6,8.7,6.7,17.7,6.7h51.2v-41.1h-8.8V374.9z M321.1,362v12.9h-9.2c-9.8,0-14-3.9-14-12.9c0-9.3,4.5-14.9,11.9-14.9
				C317.6,347.1,321.1,351.7,321.1,362z M201.2,347.1c5.1,0,8.9,1.4,9.9,1.8v25.9H204c-10.5,0-15.1-4.3-15.1-14.1
				C188.9,352.4,193.6,347.1,201.2,347.1z"/>
			<path d="M343.8,389.3c-2.8,0-5,2.2-5,5c0,2.9,2.1,5.1,5,5.1c2.8,0,5-2.3,5-5.1C348.8,391.5,346.6,389.3,343.8,389.3z"/>
			<path d="M356.5,389.3c-2.8,0-5.1,2.2-5.1,5c0,2.8,2.2,5.1,5.1,5.1c2.8,0,4.9-2.2,4.9-5.1C361.4,391.5,359.2,389.3,356.5,389.3z"
				/>
			<path d="M381.5,339.2l-0.4-0.1l-2.2,7.6l0.4,0.1c14.7,4.5,20.9,12.6,21.2,28.1H373v7.2h36.2v-4.7
				C409.2,356.3,401.2,345.3,381.5,339.2z"/>
			<path d="M452.7,340v6.4l0.3,0.1c15.3,4.4,21.7,12.6,22.1,28.4h-44.5v-54.1h-8.8V382h62v-4.8c0-18.4-6.1-29-20.5-35.1l22.7-14v-9
				l-33.1,20.8L452.7,340z"/>
			<path d="M506.9,311c-2.8,0-6.2-0.6-6.2-3.5c0-1.9,1.6-3.1,4.2-3.1c1.8,0,3.4,0.3,4.1,0.4l0.5,0.1l0.9-5.5l-0.4-0.1
				c-1-0.2-2.8-0.3-4.7-0.3c-10.4,0-11.2,6.7-11.2,8.8c0,1.1,0.4,2.4,1.2,3.4c-1.3-0.1-2.8-0.2-4.4-0.2h-0.5v5.4H512V311H506.9z"/>
			<rect x="497.6" y="321.6" width="8.8" height="60.5"/>
		</g>
		<g>
			<linearGradient id="SVGID_24_" gradientUnits="userSpaceOnUse" x1="256" y1="453.0659" x2="256" y2="265.3388">
				<stop  offset="0.1887" style="stop-color:#51E69B"/>
				<stop  offset="0.948" style="stop-color:#26C5F9"/>
			</linearGradient>
			<rect x="7.2" y="321.6" class="st26" width="8.8" height="60.5"/>
			<linearGradient id="SVGID_25_" gradientUnits="userSpaceOnUse" x1="256" y1="453.0659" x2="256" y2="265.3388">
				<stop  offset="0.1887" style="stop-color:#51E69B"/>
				<stop  offset="0.948" style="stop-color:#26C5F9"/>
			</linearGradient>
			<path class="st27" d="M21.6,311h-5.1c-2.8,0-6.2-0.6-6.2-3.5c0-1.9,1.6-3.1,4.2-3.1c1.8,0,3.4,0.3,4.1,0.4l0.5,0.1l0.9-5.5
				l-0.4-0.1c-1-0.2-2.8-0.3-4.7-0.3c-10.4,0-11.2,6.7-11.2,8.8c0,1.1,0.4,2.4,1.2,3.4C3.6,311.1,2,311,0.5,311H0v5.4h21.6V311z"/>
			<linearGradient id="SVGID_26_" gradientUnits="userSpaceOnUse" x1="256" y1="453.0659" x2="256" y2="265.3388">
				<stop  offset="0.1887" style="stop-color:#51E69B"/>
				<stop  offset="0.948" style="stop-color:#26C5F9"/>
			</linearGradient>
			<path class="st28" d="M98.9,334c2.8,0,5-2.3,5-5.1c0-2.8-2.2-5-5-5c-2.8,0-5,2.2-5,5C93.9,331.8,96.1,334,98.9,334z"/>
			<linearGradient id="SVGID_27_" gradientUnits="userSpaceOnUse" x1="256" y1="453.0659" x2="256" y2="265.3388">
				<stop  offset="0.1887" style="stop-color:#51E69B"/>
				<stop  offset="0.948" style="stop-color:#26C5F9"/>
			</linearGradient>
			<path class="st29" d="M111.6,334c2.8,0,4.9-2.2,4.9-5.1c0-2.8-2.2-5-4.9-5c-2.8,0-5.1,2.2-5.1,5C106.5,331.7,108.7,334,111.6,334
				z"/>
			<linearGradient id="SVGID_28_" gradientUnits="userSpaceOnUse" x1="256" y1="453.0659" x2="256" y2="265.3388">
				<stop  offset="0.1887" style="stop-color:#51E69B"/>
				<stop  offset="0.948" style="stop-color:#26C5F9"/>
			</linearGradient>
			<path class="st30" d="M106.1,340c-15.1,0-21.8,10.7-21.8,21.3c0,6.4,1.6,10.8,5,13.7c-0.8-0.1-1.9-0.2-3.2-0.2h-44v-34h-8.8v41.8
				c0,9.9-3.3,14.2-10.9,14.2c-3,0-5.8-0.5-8.4-1.4l-0.5-0.2l-1.1,7.5l0.4,0.1c2.9,0.8,6.1,1.2,9,1.2c13.7,0,20.3-7.2,20.3-22h82.8
				v-22.4C124.9,346.9,118.2,340,106.1,340z M105.4,347.1c7.4,0,10.8,4.4,10.8,13.8v13.9h-8c-10.5,0-15.1-4.3-15.1-14
				C93.1,352.4,97.8,347.1,105.4,347.1z"/>
			<linearGradient id="SVGID_29_" gradientUnits="userSpaceOnUse" x1="256" y1="453.0659" x2="256" y2="265.3388">
				<stop  offset="0.1887" style="stop-color:#51E69B"/>
				<stop  offset="0.948" style="stop-color:#26C5F9"/>
			</linearGradient>
			<path class="st31" d="M142.2,395.5c0-1.5,1.3-2.4,3.6-2.4c1.8,0,3.4,0.4,3.9,0.5l0.5,0.1l0.9-5.7l-0.4-0.1
				c-1.2-0.3-3-0.4-4.8-0.4c-7.7,0-10.5,4.4-10.5,8.2c0,0.9,0.3,1.8,0.7,2.5c-1.1-0.1-2.4-0.1-3.7-0.1H132v5.6h20.9v-5.6h-5.5
				C145,398.2,142.2,397.7,142.2,395.5z"/>
			<linearGradient id="SVGID_30_" gradientUnits="userSpaceOnUse" x1="256" y1="453.0659" x2="256" y2="265.3388">
				<stop  offset="0.1887" style="stop-color:#51E69B"/>
				<stop  offset="0.948" style="stop-color:#26C5F9"/>
			</linearGradient>
			<rect x="139.3" y="320.8" class="st32" width="8.8" height="61.2"/>
			<linearGradient id="SVGID_31_" gradientUnits="userSpaceOnUse" x1="256" y1="453.0659" x2="256" y2="265.3388">
				<stop  offset="0.1887" style="stop-color:#51E69B"/>
				<stop  offset="0.948" style="stop-color:#26C5F9"/>
			</linearGradient>
			<path class="st33" d="M207.7,334c2.8,0,4.9-2.2,4.9-5.1c0-2.8-2.2-5-4.9-5c-2.8,0-5.1,2.2-5.1,5C202.6,331.7,204.9,334,207.7,334
				z"/>
			<linearGradient id="SVGID_32_" gradientUnits="userSpaceOnUse" x1="256" y1="453.0659" x2="256" y2="265.3388">
				<stop  offset="0.1887" style="stop-color:#51E69B"/>
				<stop  offset="0.948" style="stop-color:#26C5F9"/>
			</linearGradient>
			<path class="st34" d="M195.1,334c2.8,0,5-2.3,5-5.1c0-2.8-2.2-5-5-5c-2.8,0-5,2.2-5,5C190.1,331.8,192.2,334,195.1,334z"/>
			<linearGradient id="SVGID_33_" gradientUnits="userSpaceOnUse" x1="256" y1="453.0659" x2="256" y2="265.3388">
				<stop  offset="0.1887" style="stop-color:#51E69B"/>
				<stop  offset="0.948" style="stop-color:#26C5F9"/>
			</linearGradient>
			<path class="st35" d="M244.6,389.3c-2.8,0-5,2.2-5,5c0,2.9,2.1,5.1,5,5.1c2.8,0,5-2.3,5-5.1C249.6,391.5,247.4,389.3,244.6,389.3
				z"/>
			<linearGradient id="SVGID_34_" gradientUnits="userSpaceOnUse" x1="256" y1="453.0659" x2="256" y2="265.3388">
				<stop  offset="0.1887" style="stop-color:#51E69B"/>
				<stop  offset="0.948" style="stop-color:#26C5F9"/>
			</linearGradient>
			<path class="st36" d="M257.2,389.3c-2.8,0-5.1,2.2-5.1,5c0,2.8,2.2,5.1,5.1,5.1c2.8,0,4.9-2.2,4.9-5.1
				C262.1,391.5,260,389.3,257.2,389.3z"/>
			<linearGradient id="SVGID_35_" gradientUnits="userSpaceOnUse" x1="256" y1="453.0659" x2="256" y2="265.3388">
				<stop  offset="0.1887" style="stop-color:#51E69B"/>
				<stop  offset="0.948" style="stop-color:#26C5F9"/>
			</linearGradient>
			<path class="st37" d="M353.3,374.9h-23.5v-14.2c0-13.8-6.5-20.7-19.3-20.7c-13,0-21.3,8.9-21.3,22.8c0,10.7-3.6,12.1-7.1,12.1
				h-19.2v-34H254v34h-34.3v-31.8l-0.3-0.1c-0.1,0-8-3-17.4-3c-16.2,0-22,11.7-22,21.7c0,13.7,7.5,20.4,22.9,20.4h78.8
				c5.3,0,9.4-2.4,11.4-6.7c3.1,4.6,8.7,6.7,17.7,6.7h51.2v-41.1h-8.8V374.9z M321.1,362v12.9h-9.2c-9.8,0-14-3.9-14-12.9
				c0-9.3,4.5-14.9,11.9-14.9C317.6,347.1,321.1,351.7,321.1,362z M201.2,347.1c5.1,0,8.9,1.4,9.9,1.8v25.9H204
				c-10.5,0-15.1-4.3-15.1-14.1C188.9,352.4,193.6,347.1,201.2,347.1z"/>
			<linearGradient id="SVGID_36_" gradientUnits="userSpaceOnUse" x1="256" y1="453.0659" x2="256" y2="265.3388">
				<stop  offset="0.1887" style="stop-color:#51E69B"/>
				<stop  offset="0.948" style="stop-color:#26C5F9"/>
			</linearGradient>
			<path class="st38" d="M343.8,389.3c-2.8,0-5,2.2-5,5c0,2.9,2.1,5.1,5,5.1c2.8,0,5-2.3,5-5.1C348.8,391.5,346.6,389.3,343.8,389.3
				z"/>
			<linearGradient id="SVGID_37_" gradientUnits="userSpaceOnUse" x1="256" y1="453.0659" x2="256" y2="265.3388">
				<stop  offset="0.1887" style="stop-color:#51E69B"/>
				<stop  offset="0.948" style="stop-color:#26C5F9"/>
			</linearGradient>
			<path class="st39" d="M356.5,389.3c-2.8,0-5.1,2.2-5.1,5c0,2.8,2.2,5.1,5.1,5.1c2.8,0,4.9-2.2,4.9-5.1
				C361.4,391.5,359.2,389.3,356.5,389.3z"/>
			<linearGradient id="SVGID_38_" gradientUnits="userSpaceOnUse" x1="256" y1="453.0659" x2="256" y2="265.3388">
				<stop  offset="0.1887" style="stop-color:#51E69B"/>
				<stop  offset="0.948" style="stop-color:#26C5F9"/>
			</linearGradient>
			<path class="st40" d="M381.5,339.2l-0.4-0.1l-2.2,7.6l0.4,0.1c14.7,4.5,20.9,12.6,21.2,28.1H373v7.2h36.2v-4.7
				C409.2,356.3,401.2,345.3,381.5,339.2z"/>
			<linearGradient id="SVGID_39_" gradientUnits="userSpaceOnUse" x1="256" y1="453.0659" x2="256" y2="265.3388">
				<stop  offset="0.1887" style="stop-color:#51E69B"/>
				<stop  offset="0.948" style="stop-color:#26C5F9"/>
			</linearGradient>
			<path class="st41" d="M452.7,340v6.4l0.3,0.1c15.3,4.4,21.7,12.6,22.1,28.4h-44.5v-54.1h-8.8V382h62v-4.8
				c0-18.4-6.1-29-20.5-35.1l22.7-14v-9l-33.1,20.8L452.7,340z"/>
			<linearGradient id="SVGID_40_" gradientUnits="userSpaceOnUse" x1="256" y1="453.0659" x2="256" y2="265.3388">
				<stop  offset="0.1887" style="stop-color:#51E69B"/>
				<stop  offset="0.948" style="stop-color:#26C5F9"/>
			</linearGradient>
			<path class="st42" d="M506.9,311c-2.8,0-6.2-0.6-6.2-3.5c0-1.9,1.6-3.1,4.2-3.1c1.8,0,3.4,0.3,4.1,0.4l0.5,0.1l0.9-5.5l-0.4-0.1
				c-1-0.2-2.8-0.3-4.7-0.3c-10.4,0-11.2,6.7-11.2,8.8c0,1.1,0.4,2.4,1.2,3.4c-1.3-0.1-2.8-0.2-4.4-0.2h-0.5v5.4H512V311H506.9z"/>
			<linearGradient id="SVGID_41_" gradientUnits="userSpaceOnUse" x1="256" y1="453.0659" x2="256" y2="265.3388">
				<stop  offset="0.1887" style="stop-color:#51E69B"/>
				<stop  offset="0.948" style="stop-color:#26C5F9"/>
			</linearGradient>
			<rect x="497.6" y="321.6" class="st43" width="8.8" height="60.5"/>
		</g>
		<g>
			<rect x="7.2" y="321.6" class="st0" width="8.8" height="60.5"/>
			<path class="st0" d="M21.6,311h-5.1c-2.8,0-6.2-0.6-6.2-3.5c0-1.9,1.6-3.1,4.2-3.1c1.8,0,3.4,0.3,4.1,0.4l0.5,0.1l0.9-5.5
				l-0.4-0.1c-1-0.2-2.8-0.3-4.7-0.3c-10.4,0-11.2,6.7-11.2,8.8c0,1.1,0.4,2.4,1.2,3.4C3.6,311.1,2,311,0.5,311H0v5.4h21.6V311z"/>
			<path class="st0" d="M98.9,334c2.8,0,5-2.3,5-5.1c0-2.8-2.2-5-5-5c-2.8,0-5,2.2-5,5C93.9,331.8,96.1,334,98.9,334z"/>
			<path class="st0" d="M111.6,334c2.8,0,4.9-2.2,4.9-5.1c0-2.8-2.2-5-4.9-5c-2.8,0-5.1,2.2-5.1,5C106.5,331.7,108.7,334,111.6,334z
				"/>
			<path class="st0" d="M106.1,340c-15.1,0-21.8,10.7-21.8,21.3c0,6.4,1.6,10.8,5,13.7c-0.8-0.1-1.9-0.2-3.2-0.2h-44v-34h-8.8v41.8
				c0,9.9-3.3,14.2-10.9,14.2c-3,0-5.8-0.5-8.4-1.4l-0.5-0.2l-1.1,7.5l0.4,0.1c2.9,0.8,6.1,1.2,9,1.2c13.7,0,20.3-7.2,20.3-22h82.8
				v-22.4C124.9,346.9,118.2,340,106.1,340z M105.4,347.1c7.4,0,10.8,4.4,10.8,13.8v13.9h-8c-10.5,0-15.1-4.3-15.1-14
				C93.1,352.4,97.8,347.1,105.4,347.1z"/>
			<path class="st0" d="M142.2,395.5c0-1.5,1.3-2.4,3.6-2.4c1.8,0,3.4,0.4,3.9,0.5l0.5,0.1l0.9-5.7l-0.4-0.1c-1.2-0.3-3-0.4-4.8-0.4
				c-7.7,0-10.5,4.4-10.5,8.2c0,0.9,0.3,1.8,0.7,2.5c-1.1-0.1-2.4-0.1-3.7-0.1H132v5.6h20.9v-5.6h-5.5
				C145,398.2,142.2,397.7,142.2,395.5z"/>
			<rect x="139.3" y="320.8" class="st0" width="8.8" height="61.2"/>
			<path class="st0" d="M207.7,334c2.8,0,4.9-2.2,4.9-5.1c0-2.8-2.2-5-4.9-5c-2.8,0-5.1,2.2-5.1,5C202.6,331.7,204.9,334,207.7,334z
				"/>
			<path class="st0" d="M195.1,334c2.8,0,5-2.3,5-5.1c0-2.8-2.2-5-5-5c-2.8,0-5,2.2-5,5C190.1,331.8,192.2,334,195.1,334z"/>
			<path class="st0" d="M244.6,389.3c-2.8,0-5,2.2-5,5c0,2.9,2.1,5.1,5,5.1c2.8,0,5-2.3,5-5.1C249.6,391.5,247.4,389.3,244.6,389.3z
				"/>
			<path class="st0" d="M257.2,389.3c-2.8,0-5.1,2.2-5.1,5c0,2.8,2.2,5.1,5.1,5.1c2.8,0,4.9-2.2,4.9-5.1
				C262.1,391.5,260,389.3,257.2,389.3z"/>
			<path class="st0" d="M353.3,374.9h-23.5v-14.2c0-13.8-6.5-20.7-19.3-20.7c-13,0-21.3,8.9-21.3,22.8c0,10.7-3.6,12.1-7.1,12.1
				h-19.2v-34H254v34h-34.3v-31.8l-0.3-0.1c-0.1,0-8-3-17.4-3c-16.2,0-22,11.7-22,21.7c0,13.7,7.5,20.4,22.9,20.4h78.8
				c5.3,0,9.4-2.4,11.4-6.7c3.1,4.6,8.7,6.7,17.7,6.7h51.2v-41.1h-8.8V374.9z M321.1,362v12.9h-9.2c-9.8,0-14-3.9-14-12.9
				c0-9.3,4.5-14.9,11.9-14.9C317.6,347.1,321.1,351.7,321.1,362z M201.2,347.1c5.1,0,8.9,1.4,9.9,1.8v25.9H204
				c-10.5,0-15.1-4.3-15.1-14.1C188.9,352.4,193.6,347.1,201.2,347.1z"/>
			<path class="st0" d="M343.8,389.3c-2.8,0-5,2.2-5,5c0,2.9,2.1,5.1,5,5.1c2.8,0,5-2.3,5-5.1C348.8,391.5,346.6,389.3,343.8,389.3z
				"/>
			<path class="st0" d="M356.5,389.3c-2.8,0-5.1,2.2-5.1,5c0,2.8,2.2,5.1,5.1,5.1c2.8,0,4.9-2.2,4.9-5.1
				C361.4,391.5,359.2,389.3,356.5,389.3z"/>
			<path class="st0" d="M381.5,339.2l-0.4-0.1l-2.2,7.6l0.4,0.1c14.7,4.5,20.9,12.6,21.2,28.1H373v7.2h36.2v-4.7
				C409.2,356.3,401.2,345.3,381.5,339.2z"/>
			<path class="st0" d="M452.7,340v6.4l0.3,0.1c15.3,4.4,21.7,12.6,22.1,28.4h-44.5v-54.1h-8.8V382h62v-4.8c0-18.4-6.1-29-20.5-35.1
				l22.7-14v-9l-33.1,20.8L452.7,340z"/>
			<path class="st0" d="M506.9,311c-2.8,0-6.2-0.6-6.2-3.5c0-1.9,1.6-3.1,4.2-3.1c1.8,0,3.4,0.3,4.1,0.4l0.5,0.1l0.9-5.5l-0.4-0.1
				c-1-0.2-2.8-0.3-4.7-0.3c-10.4,0-11.2,6.7-11.2,8.8c0,1.1,0.4,2.4,1.2,3.4c-1.3-0.1-2.8-0.2-4.4-0.2h-0.5v5.4H512V311H506.9z"/>
			<rect x="497.6" y="321.6" class="st0" width="8.8" height="60.5"/>
		</g>
	</g>
	<g>
		<path d="M23.9,460.4c-6.3,0-8.8-2.8-9.1-7.3h-1c-2.5,0-3.3,1.5-2.7,5l1.8,11.3H9.9l-1.8-11c-0.7-4.7,1-7.8,5.9-7.8h1
			c0.7-3.8,3.5-6.8,8.5-6.8c4.9,0,7.4,2.8,7.4,7.8v6.4h3.5v2.5H23.9z M27.8,452.1c0-4.2-1.7-5.8-4.6-5.8c-3.2,0-5.2,2.3-5.2,5.7
			c0,3.9,1.9,5.8,6.3,5.8h3.4V452.1z"/>
		<path d="M33.9,457.9h7v-13.7H44v16.3H33.9V457.9z M36.8,467.4c-1,0-1.8-0.8-1.8-1.9c0-1,0.8-1.8,1.8-1.8c1,0,1.8,0.8,1.8,1.8
			S37.8,467.4,36.8,467.4z M41.9,467.4c-1,0-1.9-0.8-1.9-1.9c0-1,0.8-1.8,1.9-1.8c1,0,1.8,0.8,1.8,1.8S42.9,467.4,41.9,467.4z"/>
		<path d="M44.5,468.8l0.4-2.6c1,0.4,2.2,0.6,3.5,0.6c2.9,0,4.6-1.4,4.6-5.9v-16.7h3.2v13.7h3.8v2.5h-3.8v0.2c0,4.9-1.8,8.7-8,8.7
			C46.8,469.3,45.5,469.1,44.5,468.8z"/>
		<path d="M59.4,457.9h11.1c-0.1-6.8-3-10.1-9.1-11.8v-2.4l13.1-8.2v3.2l-9.4,5.8c5.2,2.1,8.3,5.8,8.5,13.4h3.2v2.5H59.4V457.9z"/>
		<path d="M76.3,457.9h4.8V436h3.2v24.4h-8V457.9z"/>
		<path d="M90.9,436h3.2v24.4h-3.2V436z"/>
		<path d="M125.6,458.7c0,6.5-3.1,9.8-9.1,9.8c-4.8,0-8.6-2.6-8.6-9.7c0-2.2,0.3-4.5,0.9-6.6l3.3-0.6c-0.7,2.3-1,4.6-1,6.9
			c0,5.9,3,7.4,5.7,7.4c3.3,0,5.6-1.7,5.6-7v-14.7h3.2V458.7z M114.8,445.6c0-1,0.8-1.9,1.9-1.9s1.9,0.8,1.9,1.9
			c0,1-0.9,1.9-1.9,1.9S114.8,446.7,114.8,445.6z"/>
		<path d="M127.9,431.5l3.1-2.3c0.2,0.2,1.5,1.4,3.3,1.4c1.9,0,3.4-1.2,3.6-1.5v2.5c-0.3,0.2-1.5,1.3-3.8,1.3
			c-1.8,0-2.9-0.9-3.1-1.1l-1.8,1.3L127.9,431.5z M131.9,436h3.2v24.4h-3.2V436z"/>
		<path d="M134,468.8l0.4-2.6c1,0.4,2.2,0.6,3.5,0.6c2.9,0,4.6-1.4,4.6-5.9v-16.7h3.2v13.7h3.8v2.5h-3.8v0.2c0,4.9-1.8,8.7-8,8.7
			C136.3,469.3,135,469.1,134,468.8z"/>
		<path d="M149,457.9h2c1.2,0,2.5,0.1,2.5,0.1c-1.5-1.1-2.3-3-2.3-5.8c0-4.7,3.2-8.4,8.4-8.4c4.4,0,7.7,2.2,7.7,8
			c0,2.5-0.9,4.9-2.7,6.2c0,0,1.8-0.1,3-0.1h2.4v2.5h-21V457.9z M164,452c0-3.6-1.6-5.7-4.8-5.7c-2.5,0-4.9,1.7-4.9,5.7
			c0,3.8,1.7,5.9,4.8,5.9C161.8,457.9,164,456.1,164,452z M154.9,439.1c0-1,0.8-1.8,1.8-1.8c1,0,1.8,0.8,1.8,1.8
			c0,1-0.8,1.9-1.8,1.9C155.7,441,154.9,440.2,154.9,439.1z M160,439.1c0-1,0.8-1.8,1.9-1.8c1,0,1.8,0.8,1.8,1.8
			c0,1-0.8,1.9-1.8,1.9C160.9,441,160,440.2,160,439.1z"/>
		<path d="M169.4,457.9h4.8V436h3.2v24.4h-8V457.9z"/>
		<path d="M184,436h3.2v24.4H184V436z"/>
		<path d="M192.2,468.7l0.2-2.7c0,0,2.9,0.7,5.5,0.7c3.8,0,6.6-1.4,6.6-5.4v-0.8h-3.5c-6.6,0-9.1-3.1-9.1-8.1c0-4.6,2.8-8.6,8.7-8.6
			c3.8,0,7,1.2,7,1.2v16.1c0,4-2.6,8.1-10.1,8.1C195,469.2,192.2,468.7,192.2,468.7z M204.6,447.1c0,0-1.7-0.8-4.2-0.8
			c-3.2,0-5.2,2.3-5.2,5.7c0,3.9,1.8,5.9,6.3,5.9h3V447.1z"/>
		<path d="M229.8,460.4c-6.6,0-9.1-3.1-9.1-8.1c0-4.6,2.8-8.6,8.7-8.6c3.8,0,7,1.2,7,1.2v12.9h3.8v2.5H229.8z M233.3,447.1
			c0,0-1.7-0.8-4.2-0.8c-3.2,0-5.2,2.3-5.2,5.7c0,3.9,1.8,5.9,6.3,5.9h3V447.1z M224.8,439.1c0-1,0.8-1.8,1.8-1.8
			c1,0,1.8,0.8,1.8,1.8c0,1-0.8,1.9-1.8,1.9C225.6,441,224.8,440.2,224.8,439.1z M229.8,439.1c0-1,0.8-1.8,1.9-1.8
			c1,0,1.8,0.8,1.8,1.8c0,1-0.8,1.9-1.8,1.9C230.7,441,229.8,440.2,229.8,439.1z"/>
		<path d="M239.7,457.9h7v-13.7h3.2v13.7h3.8v2.5h-13.9V457.9z M242.6,467.4c-1,0-1.8-0.8-1.8-1.9c0-1,0.8-1.8,1.8-1.8
			c1,0,1.8,0.8,1.8,1.8S243.7,467.4,242.6,467.4z M247.8,467.4c-1,0-1.9-0.8-1.9-1.9c0-1,0.8-1.8,1.9-1.8c1,0,1.8,0.8,1.8,1.8
			S248.8,467.4,247.8,467.4z"/>
		<path d="M253.2,457.9h5.1v-13.7h3.2v16.3h-8.2V457.9z M255.6,465.6c0-1,0.8-1.9,1.9-1.9c1,0,1.9,0.8,1.9,1.9c0,1-0.9,1.9-1.9,1.9
			C256.5,467.5,255.6,466.7,255.6,465.6z"/>
		<path d="M259.9,468.8l0.4-2.6c1,0.4,2.2,0.6,3.5,0.6c2.9,0,4.6-1.4,4.6-5.9v-16.7h3.2v13.7h3.8v2.5h-3.8v0.2c0,4.9-1.8,8.7-8,8.7
			C262.3,469.3,261,469.1,259.9,468.8z"/>
		<path d="M274.9,457.9h1.1c3.8,0,7-0.7,9.4-1.8c-2.5-2.3-4.8-4.9-8.3-6l0.3-2.2c2.7-2,6.5-4.2,10-4.2c4.7,0,6.7,2.6,6.7,5.4
			c0,2.4-1.4,5.1-4.2,7.2c1.5,1,3,1.7,5,1.7h2.1v2.5h-2.6c-2.9,0-5.1-1.1-7-2.6c-3,1.6-6.9,2.6-11.7,2.6h-0.9V457.9z M287.9,454.6
			c2-1.5,3-3.3,3-5.1c0-1.9-1.2-3.4-3.8-3.4c-2.4,0-5.2,1.7-6.7,2.8C283.4,450,285.6,452.5,287.9,454.6z"/>
		<path d="M296.6,457.9h4.8V436h3.2v24.4h-8V457.9z"/>
		<path d="M311.2,436h3.2v24.4h-3.2V436z"/>
		<path d="M336.7,460.4c-6.6,0-9.1-3.1-9.1-8.1c0-4.6,2.8-8.6,8.7-8.6c3.8,0,7,1.2,7,1.2v12.9h3.8v2.5H336.7z M340.2,447.1
			c0,0-1.7-0.8-4.2-0.8c-3.2,0-5.2,2.3-5.2,5.7c0,3.9,1.8,5.9,6.3,5.9h3V447.1z M331.7,439.1c0-1,0.8-1.8,1.8-1.8
			c1,0,1.8,0.8,1.8,1.8c0,1-0.8,1.9-1.8,1.9C332.5,441,331.7,440.2,331.7,439.1z M336.8,439.1c0-1,0.8-1.8,1.9-1.8
			c1,0,1.8,0.8,1.8,1.8c0,1-0.8,1.9-1.8,1.9C337.6,441,336.8,440.2,336.8,439.1z"/>
		<path d="M346.6,457.9h1.1c3.8,0,7-0.7,9.4-1.8c-2.5-2.3-4.8-4.9-8.3-6l0.3-2.2c2.7-2,6.5-4.2,10-4.2c4.7,0,6.7,2.6,6.7,5.4
			c0,2.4-1.4,5.1-4.2,7.2c1.5,1,3,1.7,5,1.7h2.1v2.5h-2.6c-2.9,0-5.1-1.1-7-2.6c-3,1.6-6.9,2.6-11.7,2.6h-0.9V457.9z M359.7,454.6
			c2-1.5,3-3.3,3-5.1c0-1.9-1.2-3.4-3.8-3.4c-2.4,0-5.2,1.7-6.7,2.8C355.2,450,357.3,452.5,359.7,454.6z M356.7,438.5
			c0-1,0.8-1.9,1.9-1.9c1,0,1.9,0.8,1.9,1.9c0,1-0.9,1.9-1.9,1.9C357.5,440.3,356.7,439.5,356.7,438.5z"/>
		<path d="M368.3,457.9h4.8V436h3.2v21.9h3.8v2.5h-11.8V457.9z"/>
		<path d="M379.6,457.9h4.8V436h3.2v24.4h-8V457.9z"/>
		<path d="M394.2,436h3.2v24.4h-3.2V436z"/>
		<path d="M426.8,460.4c-6.3,0-8.8-2.8-9.1-7.3h-1c-2.5,0-3.3,1.5-2.7,5l1.8,11.3h-3.1l-1.8-11c-0.7-4.7,1-7.8,5.9-7.8h1
			c0.7-3.8,3.5-6.8,8.5-6.8c4.9,0,7.4,2.8,7.4,7.8v6.4h3.5v2.5H426.8z M430.7,452.1c0-4.2-1.7-5.8-4.6-5.8c-3.2,0-5.2,2.3-5.2,5.7
			c0,3.9,1.9,5.8,6.3,5.8h3.4V452.1z"/>
		<path d="M436.8,457.9h7v-13.7h3.2v13.7h3.8v2.5h-13.9V457.9z M439.7,467.4c-1,0-1.8-0.8-1.8-1.9c0-1,0.8-1.8,1.8-1.8
			c1,0,1.8,0.8,1.8,1.8S440.7,467.4,439.7,467.4z M444.8,467.4c-1,0-1.9-0.8-1.9-1.9c0-1,0.8-1.8,1.9-1.8c1,0,1.8,0.8,1.8,1.8
			S445.8,467.4,444.8,467.4z"/>
		<path d="M450.2,457.9h4.8V436h3.2v21.9h3.8v2.5h-11.8V457.9z"/>
		<path d="M461.5,457.9h1.1c3.8,0,7-0.7,9.4-1.8c-2.5-2.3-4.8-4.9-8.3-6l0.3-2.2c2.7-2,6.5-4.2,10-4.2c4.7,0,6.7,2.6,6.7,5.4
			c0,2.4-1.4,5.1-4.2,7.2c1.5,1,3,1.7,5,1.7h2.1v2.5h-2.6c-2.9,0-5.1-1.1-7-2.6c-3,1.6-6.9,2.6-11.7,2.6h-0.9V457.9z M474.6,454.6
			c2-1.5,3-3.3,3-5.1c0-1.9-1.2-3.4-3.8-3.4c-2.4,0-5.2,1.7-6.7,2.8C470.1,450,472.3,452.5,474.6,454.6z"/>
		<path d="M483.2,457.9h5.1v-13.7h3.2v13.7h3.6v2.5h-11.8V457.9z M484.9,439.1c0-1,0.8-1.8,1.8-1.8c1,0,1.8,0.8,1.8,1.8
			c0,1-0.8,1.9-1.8,1.9C485.7,441,484.9,440.2,484.9,439.1z M490,439.1c0-1,0.8-1.8,1.9-1.8c1,0,1.8,0.8,1.8,1.8
			c0,1-0.8,1.9-1.8,1.9C490.8,441,490,440.2,490,439.1z"/>
		<path d="M494.5,457.9h4.8V436h3.2v24.4h-8V457.9z"/>
	</g>
</g>
</svg>
