<?xml version="1.0" encoding="utf-8"?>
<!-- Generator: Adobe Illustrator 24.3.0, SVG Export Plug-In . SVG Version: 6.00 Build 0)  -->
<svg version="1.1" id="Layer_1" xmlns="http://www.w3.org/2000/svg" xmlns:xlink="http://www.w3.org/1999/xlink" x="0px" y="0px"
	 viewBox="0 0 512 375.1" style="enable-background:new 0 0 512 375.1;" xml:space="preserve">
<style type="text/css">
	.Graphic_x0020_Style_x0020_4{fill:url(#SVGID_1_);}
	.st0{fill:#383D47;}
	.st1{fill:#8492A5;}
	.st2{fill:#636E7D;}
	.st3{fill:url(#SVGID_2_);}
	.st4{fill:url(#SVGID_3_);}
	.st5{fill:url(#SVGID_4_);}
	.st6{fill:url(#SVGID_5_);}
	.st7{fill:url(#SVGID_6_);}
	.st8{fill:url(#SVGID_7_);}
	.st9{fill:url(#SVGID_8_);}
	.st10{fill:url(#SVGID_9_);}
	.st11{fill:url(#SVGID_10_);}
	.st12{fill:url(#SVGID_11_);}
	.st13{fill:#71C390;}
	.st14{fill:url(#SVGID_12_);}
	.st15{fill:url(#SVGID_13_);}
	.st16{fill:url(#SVGID_14_);}
	.st17{fill:url(#SVGID_15_);}
	.st18{fill:url(#SVGID_16_);}
	.st19{fill:url(#SVGID_17_);}
	.st20{fill:url(#SVGID_18_);}
	.st21{fill:url(#SVGID_19_);}
	.st22{fill:url(#SVGID_20_);}
	.st23{fill:url(#SVGID_21_);}
	.st24{fill:url(#SVGID_22_);}
	.st25{fill:url(#SVGID_23_);}
	.st26{fill:url(#SVGID_24_);}
	.st27{fill:url(#SVGID_25_);}
	.st28{fill:url(#SVGID_26_);}
	.st29{fill:url(#SVGID_27_);}
	.st30{fill:url(#SVGID_28_);}
	.st31{fill:url(#SVGID_29_);}
	.st32{fill:url(#SVGID_30_);}
	.st33{fill:url(#SVGID_31_);}
	.st34{fill:url(#SVGID_32_);}
	.st35{fill:url(#SVGID_33_);}
	.st36{fill:url(#SVGID_34_);}
	.st37{fill:url(#SVGID_35_);}
	.st38{fill:url(#SVGID_36_);}
	.st39{fill:url(#SVGID_37_);}
	.st40{fill:url(#SVGID_38_);}
	.st41{fill:url(#SVGID_39_);}
	.st42{fill:url(#SVGID_40_);}
	.st43{fill:url(#SVGID_41_);}
	.st44{fill:url(#SVGID_42_);}
	.st45{fill:url(#SVGID_43_);}
	.st46{fill:url(#SVGID_44_);}
	.st47{fill:url(#SVGID_45_);}
	.st48{fill:url(#SVGID_46_);}
	.st49{fill:url(#SVGID_47_);}
	.st50{fill:url(#SVGID_48_);}
	.st51{fill:url(#SVGID_49_);}
	.st52{fill:url(#SVGID_50_);}
	.st53{fill:url(#SVGID_51_);}
	.st54{fill:url(#SVGID_52_);}
	.st55{fill:url(#SVGID_53_);}
	.st56{fill:url(#SVGID_54_);}
	.st57{fill:url(#SVGID_55_);}
	.st58{fill:url(#SVGID_56_);}
	.st59{fill:url(#SVGID_57_);}
	.st60{fill:url(#SVGID_58_);}
	.st61{fill:url(#SVGID_59_);}
	.st62{fill:url(#SVGID_60_);}
	.st63{fill:url(#SVGID_61_);}
	.st64{fill:url(#SVGID_62_);}
	.st65{fill:url(#SVGID_63_);}
</style>
<linearGradient id="SVGID_1_" gradientUnits="userSpaceOnUse" x1="-573.9575" y1="-67.0494" x2="-573.9575" y2="-68.0494">
	<stop  offset="0.1887" style="stop-color:#636E7D"/>
	<stop  offset="0.948" style="stop-color:#383D47"/>
</linearGradient>
<g>
	<g>
		<g>
			<g>
				<g>
					<polygon class="st0" points="492.6,285 492.4,270.2 510.8,262.6 510.8,245.6 476.6,259.7 476.6,259.7 476.6,265.3 476.7,276.7 
						476.7,276.7 476.9,293.7 476.9,308.5 511,294.4 511,277.4 					"/>
				</g>
				<g>
					<path class="st1" d="M304.8,73.8c21.3-23.1,39.5-33,39.5-33V1.4c0,0-27.6,12.3-49.2,43.6c-31.3,45.6-32.2,98.5-32.2,98.5
						S276.1,105,304.8,73.8z"/>
				</g>
				<g>
					<g>
						<path class="st0" d="M407,107.3v168.4c-17.6,2.4-39.9,6.7-62,14.1c-14,4.7-29.6,12.3-44.2,20.4V190.5
							c0-25.1,13.5-48.2,34.3-58.8c8-4.1,16.2-7.8,24.3-11C376.2,114.1,393,109.9,407,107.3 M442.4,67.7c0,0-47.2,0.8-96,20.2
							c-9.8,3.9-18.9,8.1-27.3,12.3c-32.8,16.7-53.6,51.8-53.6,90.2v183.7c0,0,54.2-38.7,90.7-50.9c42.3-14.2,86.1-15.5,86.1-15.5
							V67.7L442.4,67.7z"/>
					</g>
				</g>
				<g>
					<path class="st2" d="M347.6,78.8c-9.9,3.7-19.9,8-29.6,12.7c-12.9,6.2-24.3,14.9-33.6,25.3c-1.8,1.9-2.7,3-2.7,3
						C331.3,33.5,409,27.2,409,27.2v35.3C391.2,65.5,369.6,70.5,347.6,78.8z"/>
				</g>
				<g>
					<polygon class="st0" points="511.4,53.3 477.2,67.4 477.2,242 511.4,227.9 					"/>
				</g>
			</g>
			<g>
				<g>
					<linearGradient id="SVGID_2_" gradientUnits="userSpaceOnUse" x1="387.15" y1="374.2225" x2="387.15" y2="1.4234">
						<stop  offset="0.1887" style="stop-color:#636E7D"/>
						<stop  offset="0.948" style="stop-color:#383D47"/>
					</linearGradient>
					<polygon class="st3" points="492.6,285 492.4,270.2 510.8,262.6 510.8,245.6 476.6,259.7 476.6,259.7 476.6,265.3 476.7,276.7 
						476.7,276.7 476.9,293.7 476.9,308.5 511,294.4 511,277.4 					"/>
					<linearGradient id="SVGID_3_" gradientUnits="userSpaceOnUse" x1="387.15" y1="374.2225" x2="387.15" y2="1.4234">
						<stop  offset="0.1887" style="stop-color:#636E7D"/>
						<stop  offset="0.948" style="stop-color:#383D47"/>
					</linearGradient>
					<polygon class="st4" points="492.6,285 492.4,270.2 510.8,262.6 510.8,245.6 476.6,259.7 476.6,259.7 476.6,265.3 476.7,276.7 
						476.7,276.7 476.9,293.7 476.9,308.5 511,294.4 511,277.4 					"/>
				</g>
				<g>
					<linearGradient id="SVGID_4_" gradientUnits="userSpaceOnUse" x1="387.15" y1="374.2225" x2="387.15" y2="1.4234">
						<stop  offset="0.1887" style="stop-color:#636E7D"/>
						<stop  offset="0.948" style="stop-color:#383D47"/>
					</linearGradient>
					<path class="st5" d="M304.8,73.8c21.3-23.1,39.5-33,39.5-33V1.4c0,0-27.6,12.3-49.2,43.6c-31.3,45.6-32.2,98.5-32.2,98.5
						S276.1,105,304.8,73.8z"/>
					<linearGradient id="SVGID_5_" gradientUnits="userSpaceOnUse" x1="387.15" y1="374.2225" x2="387.15" y2="1.4234">
						<stop  offset="0.1887" style="stop-color:#636E7D"/>
						<stop  offset="0.948" style="stop-color:#383D47"/>
					</linearGradient>
					<path class="st6" d="M304.8,73.8c21.3-23.1,39.5-33,39.5-33V1.4c0,0-27.6,12.3-49.2,43.6c-31.3,45.6-32.2,98.5-32.2,98.5
						S276.1,105,304.8,73.8z"/>
				</g>
				<g>
					<g>
						<linearGradient id="SVGID_6_" gradientUnits="userSpaceOnUse" x1="387.15" y1="374.2225" x2="387.15" y2="1.4234">
							<stop  offset="0.1887" style="stop-color:#636E7D"/>
							<stop  offset="0.948" style="stop-color:#383D47"/>
						</linearGradient>
						<path class="st7" d="M407,107.3v168.4c-17.6,2.4-39.9,6.7-62,14.1c-14,4.7-29.6,12.3-44.2,20.4V190.5
							c0-25.1,13.5-48.2,34.3-58.8c8-4.1,16.2-7.8,24.3-11C376.2,114.1,393,109.9,407,107.3 M442.4,67.7c0,0-47.2,0.8-96,20.2
							c-9.8,3.9-18.9,8.1-27.3,12.3c-32.8,16.7-53.6,51.8-53.6,90.2v183.7c0,0,54.2-38.7,90.7-50.9c42.3-14.2,86.1-15.5,86.1-15.5
							V67.7L442.4,67.7z"/>
					</g>
					<g>
						<linearGradient id="SVGID_7_" gradientUnits="userSpaceOnUse" x1="387.15" y1="374.2225" x2="387.15" y2="1.4234">
							<stop  offset="0.1887" style="stop-color:#636E7D"/>
							<stop  offset="0.948" style="stop-color:#383D47"/>
						</linearGradient>
						<path class="st8" d="M407,107.3v168.4c-17.6,2.4-39.9,6.7-62,14.1c-14,4.7-29.6,12.3-44.2,20.4V190.5
							c0-25.1,13.5-48.2,34.3-58.8c8-4.1,16.2-7.8,24.3-11C376.2,114.1,393,109.9,407,107.3 M442.4,67.7c0,0-47.2,0.8-96,20.2
							c-9.8,3.9-18.9,8.1-27.3,12.3c-32.8,16.7-53.6,51.8-53.6,90.2v183.7c0,0,54.2-38.7,90.7-50.9c42.3-14.2,86.1-15.5,86.1-15.5
							V67.7L442.4,67.7z"/>
					</g>
				</g>
				<g>
					<linearGradient id="SVGID_8_" gradientUnits="userSpaceOnUse" x1="387.15" y1="374.2225" x2="387.15" y2="1.4234">
						<stop  offset="0.1887" style="stop-color:#636E7D"/>
						<stop  offset="0.948" style="stop-color:#383D47"/>
					</linearGradient>
					<path class="st9" d="M347.6,78.8c-9.9,3.7-19.9,8-29.6,12.7c-12.9,6.2-24.3,14.9-33.6,25.3c-1.8,1.9-2.7,3-2.7,3
						C331.3,33.5,409,27.2,409,27.2v35.3C391.2,65.5,369.6,70.5,347.6,78.8z"/>
					<linearGradient id="SVGID_9_" gradientUnits="userSpaceOnUse" x1="387.15" y1="374.2225" x2="387.15" y2="1.4234">
						<stop  offset="0.1887" style="stop-color:#636E7D"/>
						<stop  offset="0.948" style="stop-color:#383D47"/>
					</linearGradient>
					<path class="st10" d="M347.6,78.8c-9.9,3.7-19.9,8-29.6,12.7c-12.9,6.2-24.3,14.9-33.6,25.3c-1.8,1.9-2.7,3-2.7,3
						C331.3,33.5,409,27.2,409,27.2v35.3C391.2,65.5,369.6,70.5,347.6,78.8z"/>
				</g>
				<g>
					<linearGradient id="SVGID_10_" gradientUnits="userSpaceOnUse" x1="387.15" y1="374.2225" x2="387.15" y2="1.4234">
						<stop  offset="0.1887" style="stop-color:#636E7D"/>
						<stop  offset="0.948" style="stop-color:#383D47"/>
					</linearGradient>
					<polygon class="st11" points="511.4,53.3 477.2,67.4 477.2,242 511.4,227.9 					"/>
					<linearGradient id="SVGID_11_" gradientUnits="userSpaceOnUse" x1="387.15" y1="374.2225" x2="387.15" y2="1.4234">
						<stop  offset="0.1887" style="stop-color:#636E7D"/>
						<stop  offset="0.948" style="stop-color:#383D47"/>
					</linearGradient>
					<polygon class="st12" points="511.4,53.3 477.2,67.4 477.2,242 511.4,227.9 					"/>
				</g>
			</g>
		</g>
		<g>
			<g>
				<g>
					<path class="st13" d="M208,73.8c-21.3-23.1-39.5-33-39.5-33V1.4c0,0,27.6,12.3,49.2,43.6c31.3,45.6,32.2,98.5,32.2,98.5
						S236.7,105,208,73.8z"/>
				</g>
				<g>
					<g>
						<path class="st13" d="M105.8,107.3c14.1,2.6,30.9,6.8,47.7,13.5c8.1,3.2,16.2,6.9,24.3,11c20.8,10.6,32.5,21.2,34.3,44.6
							l35.3,14.1c0-38.5-20.8-73.6-53.6-90.2c-8.3-4.2-17.5-8.5-27.3-12.3c-48.8-19.4-96-20.2-96-20.2l0,0v166.5l35.3,14.1V107.3"/>
					</g>
				</g>
				<g>
					<path class="st13" d="M212,310.2c-14.6-8.1-30.2-15.7-44.2-20.4c-22.1-7.4-44.4-11.7-62-14.1v-9.9L70.4,252v55.8
						c0,0,43.8,1.4,86.1,15.5c36.6,12.2,90.7,50.9,90.7,50.9V208.3L212,194.2V310.2"/>
				</g>
				<g>
					<path class="st13" d="M165.2,78.8c9.9,3.7,19.9,8,29.6,12.7c12.9,6.2,24.3,14.9,33.6,25.3c1.8,1.9,2.7,3,2.7,3
						c-49.8-86.2-127.4-92.5-127.4-92.5v35.3C121.6,65.5,143.2,70.5,165.2,78.8z"/>
				</g>
				<g>
					<polygon class="st13" points="16.9,91.3 16.8,76.5 35.1,84.8 35.1,67.8 1,53.7 1,53.7 1,59.2 1.1,70.7 1.1,70.7 1.3,87.6 
						1.3,102.5 35.4,116.6 35.4,99.6 					"/>
				</g>
				<g>
					<polygon class="st13" points="0.6,120.2 34.8,134.3 34.8,308.5 0.6,294.4 					"/>
				</g>
			</g>
			<g>
				<g>
					<linearGradient id="SVGID_12_" gradientUnits="userSpaceOnUse" x1="125.2478" y1="548.2827" x2="125.2478" y2="-118.0845">
						<stop  offset="0.1887" style="stop-color:#51E69B"/>
						<stop  offset="0.948" style="stop-color:#2697F9"/>
					</linearGradient>
					<path class="st14" d="M208,73.8c-21.3-23.1-39.5-33-39.5-33V1.4c0,0,27.6,12.3,49.2,43.6c31.3,45.6,32.2,98.5,32.2,98.5
						S236.7,105,208,73.8z"/>
					<linearGradient id="SVGID_13_" gradientUnits="userSpaceOnUse" x1="125.2478" y1="548.2827" x2="125.2478" y2="-118.0845">
						<stop  offset="0.1887" style="stop-color:#51E69B"/>
						<stop  offset="0.948" style="stop-color:#2697F9"/>
					</linearGradient>
					<path class="st15" d="M208,73.8c-21.3-23.1-39.5-33-39.5-33V1.4c0,0,27.6,12.3,49.2,43.6c31.3,45.6,32.2,98.5,32.2,98.5
						S236.7,105,208,73.8z"/>
				</g>
				<g>
					<g>
						<linearGradient id="SVGID_14_" gradientUnits="userSpaceOnUse" x1="125.2478" y1="548.2827" x2="125.2478" y2="-118.0845">
							<stop  offset="0.1887" style="stop-color:#51E69B"/>
							<stop  offset="0.948" style="stop-color:#2697F9"/>
						</linearGradient>
						<path class="st16" d="M105.8,107.3c14.1,2.6,30.9,6.8,47.7,13.5c8.1,3.2,16.2,6.9,24.3,11c20.8,10.6,32.5,21.2,34.3,44.6
							l35.3,14.1c0-38.5-20.8-73.6-53.6-90.2c-8.3-4.2-17.5-8.5-27.3-12.3c-48.8-19.4-96-20.2-96-20.2l0,0v166.5l35.3,14.1V107.3"/>
					</g>
					<g>
						<linearGradient id="SVGID_15_" gradientUnits="userSpaceOnUse" x1="125.2478" y1="548.2827" x2="125.2478" y2="-118.0845">
							<stop  offset="0.1887" style="stop-color:#51E69B"/>
							<stop  offset="0.948" style="stop-color:#2697F9"/>
						</linearGradient>
						<path class="st17" d="M105.8,107.3c14.1,2.6,30.9,6.8,47.7,13.5c8.1,3.2,16.2,6.9,24.3,11c20.8,10.6,32.5,21.2,34.3,44.6
							l35.3,14.1c0-38.5-20.8-73.6-53.6-90.2c-8.3-4.2-17.5-8.5-27.3-12.3c-48.8-19.4-96-20.2-96-20.2l0,0v166.5l35.3,14.1V107.3"/>
					</g>
				</g>
				<g>
					<linearGradient id="SVGID_16_" gradientUnits="userSpaceOnUse" x1="125.2478" y1="548.2827" x2="125.2478" y2="-118.0845">
						<stop  offset="0.1887" style="stop-color:#51E69B"/>
						<stop  offset="0.948" style="stop-color:#2697F9"/>
					</linearGradient>
					<path class="st18" d="M212,310.2c-14.6-8.1-30.2-15.7-44.2-20.4c-22.1-7.4-44.4-11.7-62-14.1v-9.9L70.4,252v55.8
						c0,0,43.8,1.4,86.1,15.5c36.6,12.2,90.7,50.9,90.7,50.9V208.3L212,194.2V310.2"/>
					<linearGradient id="SVGID_17_" gradientUnits="userSpaceOnUse" x1="125.2478" y1="548.2827" x2="125.2478" y2="-118.0845">
						<stop  offset="0.1887" style="stop-color:#51E69B"/>
						<stop  offset="0.948" style="stop-color:#2697F9"/>
					</linearGradient>
					<path class="st19" d="M212,310.2c-14.6-8.1-30.2-15.7-44.2-20.4c-22.1-7.4-44.4-11.7-62-14.1v-9.9L70.4,252v55.8
						c0,0,43.8,1.4,86.1,15.5c36.6,12.2,90.7,50.9,90.7,50.9V208.3L212,194.2V310.2"/>
				</g>
				<g>
					<linearGradient id="SVGID_18_" gradientUnits="userSpaceOnUse" x1="125.2478" y1="548.2827" x2="125.2478" y2="-118.0845">
						<stop  offset="0.1887" style="stop-color:#51E69B"/>
						<stop  offset="0.948" style="stop-color:#2697F9"/>
					</linearGradient>
					<path class="st20" d="M165.2,78.8c9.9,3.7,19.9,8,29.6,12.7c12.9,6.2,24.3,14.9,33.6,25.3c1.8,1.9,2.7,3,2.7,3
						c-49.8-86.2-127.4-92.5-127.4-92.5v35.3C121.6,65.5,143.2,70.5,165.2,78.8z"/>
					<linearGradient id="SVGID_19_" gradientUnits="userSpaceOnUse" x1="125.2478" y1="548.2827" x2="125.2478" y2="-118.0845">
						<stop  offset="0.1887" style="stop-color:#51E69B"/>
						<stop  offset="0.948" style="stop-color:#2697F9"/>
					</linearGradient>
					<path class="st21" d="M165.2,78.8c9.9,3.7,19.9,8,29.6,12.7c12.9,6.2,24.3,14.9,33.6,25.3c1.8,1.9,2.7,3,2.7,3
						c-49.8-86.2-127.4-92.5-127.4-92.5v35.3C121.6,65.5,143.2,70.5,165.2,78.8z"/>
				</g>
				<g>
					<linearGradient id="SVGID_20_" gradientUnits="userSpaceOnUse" x1="125.2478" y1="548.2827" x2="125.2478" y2="-118.0845">
						<stop  offset="0.1887" style="stop-color:#51E69B"/>
						<stop  offset="0.948" style="stop-color:#2697F9"/>
					</linearGradient>
					<polygon class="st22" points="16.9,91.3 16.8,76.5 35.1,84.8 35.1,67.8 1,53.7 1,53.7 1,59.2 1.1,70.7 1.1,70.7 1.3,87.6 
						1.3,102.5 35.4,116.6 35.4,99.6 					"/>
					<linearGradient id="SVGID_21_" gradientUnits="userSpaceOnUse" x1="125.2478" y1="548.2827" x2="125.2478" y2="-118.0845">
						<stop  offset="0.1887" style="stop-color:#51E69B"/>
						<stop  offset="0.948" style="stop-color:#2697F9"/>
					</linearGradient>
					<polygon class="st23" points="16.9,91.3 16.8,76.5 35.1,84.8 35.1,67.8 1,53.7 1,53.7 1,59.2 1.1,70.7 1.1,70.7 1.3,87.6 
						1.3,102.5 35.4,116.6 35.4,99.6 					"/>
				</g>
				<g>
					<linearGradient id="SVGID_22_" gradientUnits="userSpaceOnUse" x1="125.2478" y1="548.2827" x2="125.2478" y2="-118.0845">
						<stop  offset="0.1887" style="stop-color:#51E69B"/>
						<stop  offset="0.948" style="stop-color:#2697F9"/>
					</linearGradient>
					<polygon class="st24" points="0.6,120.2 34.8,134.3 34.8,308.5 0.6,294.4 					"/>
					<linearGradient id="SVGID_23_" gradientUnits="userSpaceOnUse" x1="125.2478" y1="548.2827" x2="125.2478" y2="-118.0845">
						<stop  offset="0.1887" style="stop-color:#51E69B"/>
						<stop  offset="0.948" style="stop-color:#2697F9"/>
					</linearGradient>
					<polygon class="st25" points="0.6,120.2 34.8,134.3 34.8,308.5 0.6,294.4 					"/>
				</g>
			</g>
		</g>
	</g>
</g>
</svg>
